Coordinates
version=1
nRows=45
nColumns=24
inDegrees=yes

Units are S.I. units (second, meters, Newtons, ...)
If the header above contains a line with 'inDegrees', this indicates whether rotational values are in degrees (yes) or radians (no).

endheader
time	pelvis_tilt	pelvis_list	pelvis_rotation	pelvis_tx	pelvis_ty	pelvis_tz	hip_flexion_r	hip_adduction_r	hip_rotation_r	knee_angle_r	ankle_angle_r	subtalar_angle_r	mtp_angle_r	hip_flexion_l	hip_adduction_l	hip_rotation_l	knee_angle_l	ankle_angle_l	subtalar_angle_l	mtp_angle_l	lumbar_extension	lumbar_bending	lumbar_rotation
5.975000	10.862310	1.994405	-177.908810	0.329433	0.558417	-1.214430	74.894087	-28.491211	-8.509611	-102.267133	34.406738	5.566588	0.000000	78.855665	-29.986567	-2.287657	-100.952788	33.631263	16.648670	0.000000	-13.188995	1.842881	1.814208
5.980000	10.895219	1.927750	-177.901700	0.329272	0.562351	-1.214557	74.396643	-28.435019	-8.731930	-101.523434	34.200360	5.587683	0.000000	78.203463	-29.912980	-2.712540	-100.083349	33.525919	16.607659	0.000000	-13.064760	1.791733	1.744707
5.985000	10.943257	1.887772	-177.899208	0.329054	0.566361	-1.214587	73.897391	-28.382255	-8.995858	-100.770698	33.957647	5.599189	0.000000	77.627880	-29.846329	-3.122440	-99.314158	33.245167	16.452952	0.000000	-12.924925	1.778384	1.718676
5.990000	10.989705	1.827715	-177.923981	0.328794	0.570443	-1.214567	73.408929	-28.318872	-9.226649	-100.007072	33.697198	5.642431	0.000000	77.089310	-29.800670	-3.426725	-98.749041	32.755185	16.484130	0.000000	-12.769907	1.771672	1.665403
5.995000	11.050189	1.810888	-177.957032	0.328581	0.574624	-1.214646	72.896029	-28.212208	-9.524514	-99.207660	33.405051	5.631348	0.000000	76.414614	-29.774080	-4.084619	-97.847394	32.663269	15.902809	0.000000	-12.602992	1.771097	1.717895
6.000000	11.089544	1.721323	-177.961221	0.328305	0.578844	-1.214679	72.388207	-28.175865	-9.749768	-98.412406	33.110752	5.696297	0.000000	75.847883	-29.665952	-4.291165	-97.126262	32.162222	16.173419	0.000000	-12.454402	1.736998	1.584987
6.005000	11.135522	1.688504	-177.995188	0.328002	0.583180	-1.214724	71.833003	-28.076791	-10.032274	-97.562419	32.825034	5.770715	0.000000	75.214836	-29.616480	-4.692583	-96.302516	31.871978	16.166909	0.000000	-12.287917	1.741007	1.580001
6.010000	11.215285	1.634039	-177.992548	0.327735	0.587601	-1.214771	71.302087	-28.008517	-10.305912	-96.689597	32.527892	5.824805	0.000000	74.597035	-29.519021	-5.121352	-95.430751	31.531054	16.134700	0.000000	-12.090573	1.744692	1.475867
6.015000	11.230604	1.595269	-178.017204	0.327354	0.592068	-1.214829	70.715111	-27.925749	-10.587548	-95.826297	32.185641	5.936500	0.000000	73.831058	-29.458090	-5.739566	-94.482161	31.398802	15.773079	0.000000	-11.944282	1.743066	1.458180
6.020000	11.282378	1.557996	-178.076640	0.326995	0.596615	-1.214840	70.136281	-27.779681	-10.781792	-94.908599	31.995454	6.232714	0.000000	73.177634	-29.406431	-6.151104	-93.647023	30.974964	15.663651	0.000000	-11.766154	1.743715	1.492835
6.025000	11.319534	1.514485	-178.105141	0.326586	0.601225	-1.214884	69.564924	-27.707960	-11.159043	-94.042471	31.561996	5.998163	0.000000	72.479146	-29.327150	-6.582398	-92.694265	30.690110	15.576970	0.000000	-11.596992	1.743247	1.442401
6.030000	11.367637	1.461862	-178.152189	0.326181	0.605881	-1.214911	68.956309	-27.580966	-11.441891	-93.095246	31.258636	5.972871	0.000000	71.784948	-29.240106	-7.012621	-91.809143	30.293268	15.499015	0.000000	-11.410436	1.746119	1.411155
6.035000	11.408635	1.418065	-178.194500	0.325803	0.610575	-1.214999	68.359247	-27.455842	-11.710627	-92.144398	30.857317	6.028258	0.000000	71.067238	-29.164477	-7.436544	-90.873751	29.975647	15.468792	0.000000	-11.231647	1.743649	1.409637
6.040000	11.417206	1.375895	-178.229816	0.325314	0.615331	-1.215014	67.707764	-27.346942	-12.006272	-91.197974	30.496067	6.069372	0.000000	70.333790	-29.066928	-7.831030	-89.929026	29.619463	15.397177	0.000000	-11.072468	1.749671	1.388424
6.045000	11.444655	1.351987	-178.310989	0.324827	0.620143	-1.215039	67.077191	-27.178401	-12.306308	-90.226080	30.117907	6.084192	0.000000	69.560525	-29.022481	-8.308906	-88.853162	29.357157	15.262332	0.000000	-10.900279	1.774016	1.427285
6.050000	11.457194	1.329849	-178.367721	0.324309	0.625009	-1.215123	66.404108	-27.012729	-12.596190	-89.235899	29.788807	6.184648	0.000000	68.807291	-28.952569	-8.747755	-87.865674	28.966083	15.108090	0.000000	-10.745251	1.792394	1.412093
6.055000	11.460627	1.297584	-178.434007	0.323757	0.629881	-1.215144	65.734504	-26.859873	-12.910543	-88.238596	29.369033	6.185863	0.000000	68.017524	-28.876549	-9.194035	-86.874514	28.667800	15.091509	0.000000	-10.598773	1.806841	1.399004
6.060000	11.466586	1.252397	-178.494453	0.323239	0.634828	-1.215236	65.048319	-26.695560	-13.197492	-87.198180	28.972868	6.236689	0.000000	67.219457	-28.783257	-9.648728	-85.858037	28.319200	15.081963	0.000000	-10.443526	1.800199	1.398775
6.065000	11.469068	1.248076	-178.559038	0.322692	0.639775	-1.215394	64.337936	-26.488583	-13.515382	-86.152590	28.568755	6.284661	0.000000	66.433803	-28.718252	-10.054669	-84.795086	27.993681	15.094004	0.000000	-10.294009	1.815417	1.431133
6.070000	11.456291	1.215750	-178.616143	0.322091	0.644727	-1.215468	63.629986	-26.319189	-13.814584	-85.116567	28.158208	6.319511	0.000000	65.622505	-28.615358	-10.479042	-83.751761	27.627324	15.062167	0.000000	-10.155481	1.811029	1.449215
6.075000	11.428309	1.166951	-178.704869	0.321463	0.649683	-1.215462	62.933466	-26.140096	-14.073786	-84.082530	27.743474	6.325293	0.000000	64.780799	-28.519025	-10.939129	-82.726261	27.244164	14.982359	0.000000	-10.031885	1.801603	1.473274
6.080000	11.424830	1.147297	-178.778718	0.320852	0.654614	-1.215563	62.235744	-25.949693	-14.391805	-83.030860	27.314241	6.304489	0.000000	63.983999	-28.431364	-11.360020	-81.662034	26.838867	14.933850	0.000000	-9.885053	1.810496	1.491853
6.085000	11.413454	1.122287	-178.848822	0.320244	0.659607	-1.215642	61.511754	-25.751853	-14.680217	-81.934181	26.889850	6.339453	0.000000	63.175151	-28.328134	-11.788977	-80.594615	26.400418	14.901551	0.000000	-9.746142	1.814566	1.510417
6.090000	11.405257	1.078704	-178.901384	0.319644	0.664577	-1.215782	60.759316	-25.537203	-14.796589	-80.774211	26.670121	6.904851	0.000000	62.327947	-28.183376	-12.219440	-79.398535	26.097590	14.949546	0.000000	-9.607058	1.792374	1.513673
6.095000	11.415416	1.061587	-178.965306	0.319040	0.669495	-1.215924	60.056514	-25.317200	-15.052076	-79.666710	26.269244	7.058913	0.000000	61.549527	-28.067275	-12.625382	-78.300806	25.662487	14.910948	0.000000	-9.451172	1.791321	1.508566
6.100000	11.388483	1.032508	-179.014944	0.318371	0.674468	-1.215994	59.328338	-25.144495	-15.376260	-78.586368	25.802878	6.986682	0.000000	60.727556	-27.916234	-13.024729	-77.208495	25.206006	14.780541	0.000000	-9.330849	1.789672	1.492647
6.105000	11.371366	0.990126	-179.076958	0.317709	0.679383	-1.215991	58.647078	-24.991868	-15.801301	-77.542150	25.174819	6.478483	0.000000	59.924458	-27.762743	-13.440888	-76.175965	24.647961	14.575306	0.000000	-9.198217	1.783552	1.497361
6.110000	11.396554	0.956686	-179.146340	0.317103	0.684200	-1.216117	57.974897	-24.774237	-16.063990	-76.418543	24.703916	6.432116	0.000000	59.141909	-27.613003	-13.845739	-75.022422	24.247951	14.505389	0.000000	-9.010882	1.764512	1.558637
6.115000	11.402625	0.930646	-179.193786	0.316479	0.688993	-1.216199	57.267909	-24.581118	-16.353242	-75.294287	24.218402	6.470227	0.000000	58.375428	-27.439270	-14.215340	-73.949619	23.721030	14.331583	0.000000	-8.853993	1.753554	1.552841
6.120000	11.415025	0.900598	-179.244578	0.315808	0.693776	-1.216303	56.564083	-24.368908	-16.615549	-74.145924	23.748371	6.516483	0.000000	57.585943	-27.254290	-14.591064	-72.805977	23.281661	14.167478	0.000000	-8.683595	1.747881	1.545278
6.125000	11.425251	0.871376	-179.311504	0.315159	0.698501	-1.216412	55.875562	-24.157157	-16.891812	-73.008290	23.278827	6.554639	0.000000	56.807744	-27.083333	-14.966324	-71.689243	22.790479	14.007096	0.000000	-8.524740	1.731260	1.551970
6.130000	11.464085	0.883456	-179.365969	0.314403	0.703180	-1.216417	55.189336	-23.928705	-17.200701	-71.861135	22.809633	6.564945	0.000000	56.075893	-26.915989	-15.293275	-70.563302	22.309211	13.832421	0.000000	-8.311054	1.784710	1.555097
6.135000	11.437382	0.858620	-179.395668	0.313749	0.707839	-1.216540	54.459632	-23.733454	-17.486257	-70.731918	22.325422	6.576368	0.000000	55.274550	-26.690400	-15.604597	-69.414512	21.831245	13.617790	0.000000	-8.188440	1.770135	1.522399
6.140000	11.460821	0.818279	-179.406940	0.313108	0.712441	-1.216651	53.772036	-23.567120	-17.776003	-69.577024	21.832834	6.633551	0.000000	54.524252	-26.446606	-15.942569	-68.238021	21.228544	13.621466	0.000000	-8.002807	1.740455	1.468280
6.145000	11.492017	0.813148	-179.441595	0.312406	0.716987	-1.216754	53.076712	-23.345752	-18.055358	-68.396869	21.351583	6.701488	0.000000	53.799758	-26.246709	-16.251590	-67.091437	20.779871	13.381522	0.000000	-7.803357	1.761156	1.429670
6.150000	11.491296	0.792307	-179.448458	0.311695	0.721534	-1.216855	52.353063	-23.159784	-18.362643	-67.227333	20.850001	6.724818	0.000000	53.042747	-25.991318	-16.536498	-65.900282	20.207421	13.377129	0.000000	-7.644042	1.762476	1.331013
6.155000	11.525454	0.798719	-179.505511	0.310957	0.725979	-1.216863	51.683606	-22.932851	-18.682920	-66.059796	20.367076	6.697686	0.000000	52.321934	-25.792032	-16.839691	-64.738010	19.682246	13.226296	0.000000	-7.434252	1.793331	1.379862
6.160000	11.514647	0.776146	-179.521481	0.310200	0.730356	-1.216865	50.982249	-22.761557	-18.977302	-64.933995	19.854718	6.704903	0.000000	51.572345	-25.556705	-17.142634	-63.587376	19.128914	13.086450	0.000000	-7.279070	1.789083	1.339398
6.165000	11.542512	0.747765	-179.553288	0.309493	0.734695	-1.216896	50.311981	-22.560228	-19.241531	-63.757358	19.343546	6.733795	0.000000	50.850704	-25.297322	-17.426002	-62.409553	18.585944	12.885185	0.000000	-7.082536	1.785771	1.319235
6.170000	11.608616	0.781428	-179.575351	0.308743	0.739021	-1.216994	49.634964	-22.302057	-19.557833	-62.543404	18.800465	6.795070	0.000000	50.185250	-25.088731	-17.665112	-61.205926	18.042983	12.739195	0.000000	-6.841961	1.836520	1.299752
6.175000	11.653504	0.783306	-179.460058	0.308549	0.743494	-1.217570	48.931229	-22.070196	-19.902144	-61.287234	18.259053	6.653682	0.000000	49.566249	-24.757842	-17.782482	-59.916429	17.324058	12.513579	0.000000	-6.705411	1.768009	1.142752
6.180000	11.613558	0.741577	-179.583126	0.307257	0.747479	-1.217208	48.214389	-21.895453	-20.127969	-60.172667	17.773285	6.819857	0.000000	48.728744	-24.561189	-18.166792	-58.845681	16.967586	12.378648	0.000000	-6.510335	1.816790	1.186874
6.185000	11.634831	0.733103	-179.604517	0.306499	0.751656	-1.217288	47.524712	-21.670166	-20.413610	-58.974807	17.250089	6.871832	0.000000	48.011716	-24.307135	-18.406822	-57.640925	16.427063	12.220899	0.000000	-6.323144	1.805121	1.173585
6.190000	11.685473	0.755794	-179.664647	0.305635	0.755725	-1.217277	46.863550	-21.415625	-20.718061	-57.775737	16.711231	6.922847	0.000000	47.325855	-24.121349	-18.680682	-56.466678	15.886175	12.087108	0.000000	-6.088294	1.869323	1.149405
6.195000	11.689077	0.719316	-179.674838	0.304841	0.759721	-1.217317	46.164818	-21.218617	-20.973487	-56.581349	16.188483	6.969362	0.000000	46.591830	-23.823038	-18.898116	-55.267772	15.365743	11.925207	0.000000	-5.919936	1.838763	1.109353
